<svg width="390" height="1074" viewBox="0 0 390 1074" fill="none" xmlns="http://www.w3.org/2000/svg">
<mask id="mask0_5_100" style="mask-type:alpha" maskUnits="userSpaceOnUse" x="-131" y="244" width="503" height="489">
<path d="M-86.3355 536.32C-185.716 463.982 -98.4601 379.105 -7.78614 352.653C43.5767 335.283 34.1421 269.653 97.7973 248.169C161.453 226.685 146.997 330.14 245.628 298.813C344.26 267.486 410.216 426.118 345.293 480.234C280.371 534.349 315.841 541.626 289.321 643.982C262.801 746.338 96.4337 765.911 66.0492 670.908C35.6646 575.905 21.2456 614.627 -86.3355 536.32Z" stroke="url(#paint0_radial_5_100)"/>
<path d="M113.377 495.202C103.396 488.723 105.883 463.472 121.839 460.701C136.451 458.164 143.829 446.157 152.653 443.186C175.885 435.366 172.006 444.104 186.243 445.447C203.568 447.081 227.931 468.08 205.382 486.031C186.837 500.794 199.556 505.384 188.847 520.43C178.137 535.476 156.98 541.219 142.742 523.333C137.395 516.617 130 505.994 113.377 495.202Z" stroke="url(#paint1_radial_5_100)"/>
<path d="M-68.54 532.134C-159.793 465.783 -80.2437 386.326 3.63777 362.027C51.6596 346.006 43.7534 285.25 102.424 265.449C162.404 245.207 148.911 340.051 239.87 311.694C331.109 283.364 393.284 429.484 332.214 480.312C271.508 530.849 304.909 537.883 279.827 632.301C254.744 726.72 101.578 745.036 72.661 657.043C44.5526 570.066 30.7721 604.303 -68.54 532.134Z" stroke="url(#paint2_radial_5_100)"/>
<path d="M-50.7452 527.946C-133.871 467.582 -62.028 393.546 15.061 371.4C59.7418 356.727 53.364 300.846 107.05 282.728C163.356 263.729 150.823 349.962 234.11 324.575C317.958 299.241 376.352 432.85 319.134 480.389C262.644 527.349 293.977 534.138 270.332 620.62C246.687 707.101 106.721 724.159 79.2722 643.178C53.4399 564.227 40.298 593.977 -50.7452 527.946Z" stroke="url(#paint3_radial_5_100)"/>
<path d="M-32.949 523.76C-107.948 469.383 -43.8108 400.768 26.4857 380.774C67.8255 367.45 62.9761 316.444 111.678 300.009C164.308 282.251 152.737 359.874 228.352 337.458C304.809 315.12 359.421 436.216 306.055 480.468C253.781 523.851 283.046 530.396 260.838 608.94C238.63 687.484 111.866 703.285 85.8847 629.314C62.3286 558.389 49.8253 583.654 -32.949 523.76Z" stroke="url(#paint4_radial_5_100)"/>
<path d="M-15.1526 519.574C-82.0241 471.184 -25.5934 407.989 37.9105 390.149C75.9093 378.173 72.5883 332.042 116.305 317.29C165.261 300.774 154.651 369.787 222.594 350.34C291.659 330.999 342.491 439.583 292.977 480.547C244.919 520.352 272.116 526.653 251.345 597.259C230.574 667.866 117.011 682.41 92.4975 615.45C71.2175 552.551 59.3527 573.33 -15.1526 519.574Z" stroke="url(#paint5_radial_5_100)"/>
<path d="M2.89103 515.698C-55.8532 473.295 -7.12886 415.521 49.5826 399.833C84.2404 389.206 82.4479 347.949 121.18 334.881C166.461 319.607 156.813 380.009 217.083 363.532C278.757 347.188 325.807 443.259 280.146 480.936C236.304 517.164 261.432 523.22 242.099 585.889C222.765 648.559 122.403 661.846 99.3575 601.896C80.3537 547.023 69.1275 563.316 2.89103 515.698Z" stroke="url(#paint6_radial_5_100)"/>
<path d="M21.2251 512.186C-29.3919 475.771 11.6261 423.418 61.5451 409.883C92.8618 400.603 92.5977 364.222 126.345 352.836C167.951 338.805 159.265 390.596 211.863 377.089C266.145 363.741 309.414 447.301 267.605 481.69C227.979 514.34 251.039 520.152 233.143 574.884C215.247 629.616 128.085 641.646 106.508 588.707C89.7803 541.86 79.1926 553.667 21.2251 512.186Z" stroke="url(#paint7_radial_5_100)"/>
<path d="M39.5766 508.696C-2.91306 478.268 30.3986 431.335 73.5251 419.953C101.501 412.022 102.765 380.515 131.528 370.813C169.459 358.024 161.734 401.204 206.66 390.667C253.551 380.316 293.039 451.363 255.081 482.464C219.672 511.537 240.664 517.105 224.205 563.9C207.746 610.695 133.786 621.467 113.676 575.538C99.2244 536.718 89.2752 544.039 39.5766 508.696Z" stroke="url(#paint8_radial_5_100)"/>
<path d="M57.9515 505.234C23.5891 480.793 49.1944 439.281 85.5284 430.052C110.163 423.469 112.956 396.837 136.734 388.818C170.991 377.271 164.227 411.841 201.481 404.274C240.98 396.919 276.687 455.454 242.581 483.267C211.388 508.763 230.312 514.086 215.29 552.944C200.269 591.801 139.509 601.317 120.867 562.399C108.692 531.604 99.3812 534.439 57.9515 505.234Z" stroke="url(#paint9_radial_5_100)"/>
<path d="M76.3621 501.815C50.1269 483.361 68.0259 447.27 97.5674 440.193C118.861 434.959 123.182 413.202 141.976 406.866C172.558 396.561 166.755 422.52 196.337 417.923C228.445 413.565 260.37 459.588 230.117 484.114C203.14 506.032 219.995 511.11 206.411 542.031C192.827 572.951 145.268 581.209 128.094 549.302C118.195 526.533 109.523 524.883 76.3621 501.815Z" stroke="url(#paint10_radial_5_100)"/>
<path d="M94.8261 498.459C76.7183 485.993 86.9109 455.322 109.66 450.398C127.613 446.512 133.462 429.63 147.271 424.977C174.178 415.914 169.337 433.263 191.247 431.636C215.963 430.274 244.107 463.785 217.706 485.023C194.945 503.363 209.732 508.198 197.585 531.181C185.438 554.164 151.081 561.165 135.375 536.268C127.751 521.526 119.718 515.389 94.8261 498.459Z" stroke="url(#paint11_radial_5_100)"/>
</mask>
<g mask="url(#mask0_5_100)">
<rect x="-187.799" y="444.163" width="528.69" height="432.102" transform="rotate(-38.5221 -187.799 444.163)" fill="url(#paint12_linear_5_100)"/>
</g>
<mask id="mask1_5_100" style="mask-type:alpha" maskUnits="userSpaceOnUse" x="-1" y="687" width="467" height="461">
<path d="M84.008 1091.24C-38.4972 1081.15 -8.12627 963.275 55.5552 893.517C90.387 851.965 48.1901 800.82 91.3801 749.36C134.57 697.899 176.039 793.775 243.98 715.715C311.922 637.654 450.769 738.828 423.47 818.816C396.172 898.805 430.251 886.57 460.844 987.783C491.438 1089 359.531 1192.25 284.163 1126.92C208.794 1061.59 216.622 1102.16 84.008 1091.24Z" stroke="url(#paint13_radial_5_100)"/>
<path d="M233.186 952.237C221.292 951.894 210.281 929.036 222.467 918.369C233.626 908.601 233.682 894.509 239.673 887.381C255.447 868.618 256.679 878.098 269.537 871.84C285.184 864.223 316.914 869.485 306.993 896.545C298.834 918.8 312.085 916.104 310.764 934.525C309.444 952.946 294.362 968.857 272.898 960.987C264.838 958.032 252.997 952.807 233.186 952.237Z" stroke="url(#paint14_radial_5_100)"/>
<path d="M97.0286 1078.41C-15.4211 1069.21 11.1878 959.966 70.1879 895.581C102.868 856.918 64.5119 809.141 104.32 761.711C145.018 713.223 182.829 801.245 245.763 729.712C308.95 658.056 438.059 750.51 412.341 825.686C386.782 900.426 418.968 889.059 446.66 982.745C474.352 1076.43 353.065 1171.75 282.598 1111.64C213.348 1051.98 219.388 1088.38 97.0286 1078.41Z" stroke="url(#paint15_radial_5_100)"/>
<path d="M110.048 1065.57C7.65391 1057.26 30.5009 956.657 84.8196 897.643C115.347 861.87 80.8327 817.462 117.259 774.062C155.464 728.547 189.617 808.715 247.544 743.709C305.977 678.457 425.349 762.191 401.21 832.556C377.391 902.048 407.683 891.548 432.474 977.707C457.265 1063.87 346.599 1151.24 281.031 1096.36C217.901 1042.37 222.152 1074.61 110.048 1065.57Z" stroke="url(#paint16_radial_5_100)"/>
<path d="M123.07 1052.74C30.731 1045.31 49.816 953.349 99.4533 899.707C127.829 866.823 97.1555 825.783 130.2 786.414C165.913 743.871 196.408 816.184 249.327 757.706C303.006 698.858 412.64 773.873 390.081 839.427C368.002 903.67 396.401 894.037 418.29 972.67C440.18 1051.3 340.134 1130.74 279.467 1081.08C222.456 1032.76 224.919 1060.84 123.07 1052.74Z" stroke="url(#paint17_radial_5_100)"/>
<path d="M136.091 1039.91C53.8082 1033.37 69.1312 950.04 114.087 901.77C140.311 871.776 113.478 834.105 143.142 798.765C176.362 759.195 203.199 823.654 251.11 771.703C300.036 719.259 399.931 785.555 378.952 846.297C358.613 905.292 385.118 896.526 404.107 967.632C423.095 1038.74 333.67 1110.23 277.903 1065.8C227.011 1023.15 227.686 1047.06 136.091 1039.91Z" stroke="url(#paint18_radial_5_100)"/>
<path d="M149.486 1027.21C77.2579 1021.56 88.8189 946.868 129.093 903.97C153.165 876.865 130.174 842.563 156.455 811.254C187.183 774.655 210.363 831.261 253.266 785.837C297.437 739.797 387.595 797.374 368.196 853.304C349.597 907.05 374.208 899.151 390.295 962.732C406.383 1026.31 327.578 1089.87 276.712 1050.65C231.938 1013.67 230.825 1033.43 149.486 1027.21Z" stroke="url(#paint19_radial_5_100)"/>
<path d="M163.317 1014.68C101.145 1009.91 108.944 943.857 144.538 906.331C166.457 882.115 147.307 851.181 170.207 823.902C198.442 790.276 217.964 839.028 255.86 800.132C295.277 760.495 375.697 809.353 357.877 860.471C341.018 908.969 363.736 901.937 376.922 957.991C390.108 1014.04 321.924 1069.66 275.958 1035.67C237.303 1004.36 234.402 1019.95 163.317 1014.68Z" stroke="url(#paint20_radial_5_100)"/>
<path d="M177.175 1002.15C125.059 998.265 129.096 940.854 160.007 908.699C179.775 887.373 164.466 859.807 183.984 836.559C209.727 805.905 225.591 846.803 258.479 814.434C293.142 781.202 363.824 821.34 347.584 867.647C332.465 910.896 353.29 904.732 363.575 953.259C373.859 1001.79 316.296 1049.46 275.23 1020.69C242.694 995.055 238.005 1006.48 177.175 1002.15Z" stroke="url(#paint21_radial_5_100)"/>
<path d="M191.068 989.636C149.007 986.636 149.282 937.863 175.512 911.08C193.128 892.644 181.66 868.446 197.796 849.228C221.047 821.547 233.253 854.59 261.134 828.749C291.042 801.921 351.987 833.34 337.326 874.835C323.947 912.836 342.878 907.539 350.262 948.539C357.645 989.54 310.702 1029.27 274.537 1005.73C248.12 985.763 241.643 993.028 191.068 989.636Z" stroke="url(#paint22_radial_5_100)"/>
<path d="M205.013 977.139C173.007 975.025 169.52 934.89 191.07 913.479C206.533 897.932 198.906 877.103 211.661 861.915C232.419 837.207 240.967 862.396 263.841 843.082C288.995 822.658 340.202 845.358 327.121 882.041C315.482 914.794 332.52 910.363 337.002 943.837C341.484 977.311 305.161 1009.1 273.897 990.786C253.599 976.489 245.334 979.59 205.013 977.139Z" stroke="url(#paint23_radial_5_100)"/>
<path d="M219.037 964.668C197.087 963.44 189.838 931.943 206.706 915.905C220.017 903.248 216.231 885.787 225.605 874.629C243.87 852.893 248.76 870.228 266.626 857.442C287.027 843.421 328.495 857.402 316.995 889.274C307.095 916.778 322.239 913.214 323.82 939.162C325.401 965.11 299.699 988.96 273.335 975.867C259.156 967.241 249.103 966.179 219.037 964.668Z" stroke="url(#paint24_radial_5_100)"/>
</mask>
<g mask="url(#mask1_5_100)">
<rect x="-50.5861" y="1065.31" width="528.69" height="432.102" transform="rotate(-69.8659 -50.5861 1065.31)" fill="url(#paint25_linear_5_100)"/>
</g>
<mask id="mask2_5_100" style="mask-type:alpha" maskUnits="userSpaceOnUse" x="-14" y="15" width="450" height="464">
<path d="M-5.29125 115.648C-18.9921 -6.50611 102.529 0.589483 183.247 49.6411C230.731 75.8165 272.789 24.558 331.606 57.0265C390.422 89.4949 304.33 148.655 394.015 200.288C483.701 251.921 411.169 407.656 327.42 396.277C243.671 384.897 262.241 415.981 168.817 465.498C75.3922 515.015 -51.339 405.468 -1.7475 318.927C47.844 232.385 9.54011 247.881 -5.29125 115.648Z" stroke="url(#paint26_radial_5_100)"/>
<path d="M159.844 235.256C157.888 223.519 178.198 208.311 191.012 218.214C202.747 227.283 216.586 224.623 224.734 229.129C246.185 240.993 237.119 244.028 245.737 255.44C256.225 269.326 257.174 301.476 228.71 296.954C205.299 293.234 210.497 305.717 192.167 307.97C173.837 310.223 155.319 298.489 158.906 275.911C160.253 267.432 163.1 254.806 159.844 235.256Z" stroke="url(#paint27_radial_5_100)"/>
<path d="M9.80896 125.953C-2.82408 13.8366 109.496 18.9046 184.041 64.3973C228.275 89.0175 267.768 42.1771 321.978 72.1035C377.397 102.699 298.307 156.757 380.624 204.733C463.11 252.934 397.257 397.435 318.534 386.679C240.27 375.996 257.625 405.389 171.027 450.609C84.4297 495.829 -32.4639 395.174 12.9454 314.447C58.151 235.003 23.5881 247.942 9.80896 125.953Z" stroke="url(#paint28_radial_5_100)"/>
<path d="M24.9094 136.256C13.3442 34.1781 116.463 37.2185 184.835 79.1523C225.819 102.217 262.747 59.795 312.351 87.1794C364.373 115.902 292.286 164.857 367.232 209.177C442.518 253.947 383.346 387.212 309.649 377.08C236.87 367.093 253.009 394.795 173.238 435.718C93.4674 476.642 -13.5886 384.879 27.6385 309.967C68.4582 237.619 37.6363 248.002 24.9094 136.256Z" stroke="url(#paint29_radial_5_100)"/>
<path d="M40.0097 146.562C29.5122 54.5218 123.43 55.5346 185.629 93.9095C223.363 115.419 257.725 77.415 302.723 102.257C351.349 129.106 286.264 172.96 353.84 213.623C421.926 254.961 369.434 376.992 300.763 367.482C233.47 358.192 248.393 384.203 175.449 420.83C102.505 457.456 5.28647 374.586 42.3313 305.489C78.7653 240.237 51.6843 248.064 40.0097 146.562Z" stroke="url(#paint30_radial_5_100)"/>
<path d="M55.1101 156.868C45.6805 74.8655 130.397 73.8507 186.423 108.667C220.907 128.621 252.704 95.0351 293.096 117.336C338.324 142.311 280.242 181.063 340.448 218.069C401.335 255.976 355.523 366.771 291.878 357.885C230.07 349.291 243.777 373.612 177.66 405.941C111.543 438.271 24.1618 364.293 57.0245 301.011C89.0725 242.856 65.7325 248.126 55.1101 156.868Z" stroke="url(#paint31_radial_5_100)"/>
<path d="M70.1486 167.566C61.7867 95.6011 137.303 92.5587 187.155 123.816C218.389 142.215 247.621 113.047 283.406 132.806C325.238 155.908 274.158 189.557 326.995 222.907C380.681 257.383 341.55 356.943 282.93 348.68C226.608 340.783 239.1 363.412 179.809 391.445C120.518 419.478 42.9751 354.392 71.6555 296.924C99.3178 245.866 79.7187 248.579 70.1486 167.566Z" stroke="url(#paint32_radial_5_100)"/>
<path d="M85.114 178.724C77.8199 116.797 144.135 111.727 187.814 139.425C215.798 156.27 242.465 131.519 273.644 148.736C312.079 169.965 268.001 198.512 313.468 228.206C359.955 259.25 327.503 347.575 273.91 339.936C223.073 332.734 234.349 353.672 181.885 377.409C129.421 401.145 61.7153 344.951 86.2136 293.298C109.49 249.337 93.6318 249.493 85.114 178.724Z" stroke="url(#paint33_radial_5_100)"/>
<path d="M100.076 189.909C93.8494 138.02 150.963 130.922 188.47 155.062C213.204 170.351 237.305 150.019 263.878 164.693C298.916 184.05 261.84 207.494 299.938 233.531C339.225 261.144 313.453 338.234 264.885 331.218C219.534 324.713 229.594 343.96 183.957 363.4C138.32 382.839 80.4519 335.537 100.768 289.7C119.658 252.834 107.541 250.435 100.076 189.909Z" stroke="url(#paint34_radial_5_100)"/>
<path d="M115.032 201.131C109.874 159.28 157.786 150.154 189.12 170.735C210.604 184.469 232.14 168.555 254.106 180.687C285.747 198.17 255.674 216.512 286.402 238.893C318.489 263.074 299.398 328.929 255.856 322.537C215.99 316.728 224.835 334.284 186.024 349.427C147.213 364.57 99.1831 326.16 115.317 286.137C129.822 256.369 121.445 251.412 115.032 201.131Z" stroke="url(#paint35_radial_5_100)"/>
<path d="M129.981 212.408C125.89 180.594 164.602 169.442 189.762 186.463C207.997 198.642 226.967 187.146 244.327 196.736C272.571 212.346 249.501 225.586 272.859 244.311C297.746 265.06 285.335 319.68 246.819 313.911C212.438 308.799 220.067 324.664 188.083 335.51C156.1 346.356 117.907 316.838 129.858 282.63C139.977 259.958 135.342 252.445 129.981 212.408Z" stroke="url(#paint36_radial_5_100)"/>
<path d="M144.919 223.767C141.896 201.991 171.407 188.811 190.394 202.273C205.379 212.897 221.783 205.819 234.538 212.867C259.385 226.604 243.317 234.742 259.305 249.81C276.992 267.128 271.261 310.513 237.771 305.367C208.876 300.951 215.289 315.125 190.132 321.675C164.975 328.224 136.62 307.598 144.389 279.205C150.122 263.63 149.228 253.56 144.919 223.767Z" stroke="url(#paint37_radial_5_100)"/>
</mask>
<g mask="url(#mask2_5_100)">
<rect x="-5.77431" y="-21.4203" width="528.69" height="432.102" transform="rotate(9.02793 -5.77431 -21.4203)" fill="url(#paint38_linear_5_100)"/>
</g>
<defs>
<radialGradient id="paint0_radial_5_100" cx="0" cy="0" r="1" gradientUnits="userSpaceOnUse" gradientTransform="translate(161.638 481.768) rotate(51.4779) scale(227.993 233.446)">
<stop stop-color="#EDCF89" stop-opacity="0"/>
<stop offset="1" stop-color="#EDCF89" stop-opacity="0.28"/>
</radialGradient>
<radialGradient id="paint1_radial_5_100" cx="0" cy="0" r="1" gradientUnits="userSpaceOnUse" gradientTransform="translate(165.543 482.152) rotate(51.4779) scale(45.8744 49.4568)">
<stop stop-color="#EDCF89" stop-opacity="0"/>
<stop offset="1" stop-color="#EDCF89" stop-opacity="0.28"/>
</radialGradient>
<radialGradient id="paint2_radial_5_100" cx="0" cy="0" r="1" gradientUnits="userSpaceOnUse" gradientTransform="translate(161.797 481.585) rotate(51.4779) scale(211.144 216.702)">
<stop stop-color="#EDCF89" stop-opacity="0"/>
<stop offset="1" stop-color="#EDCF89" stop-opacity="0.28"/>
</radialGradient>
<radialGradient id="paint3_radial_5_100" cx="0" cy="0" r="1" gradientUnits="userSpaceOnUse" gradientTransform="translate(161.956 481.401) rotate(51.4779) scale(194.295 199.959)">
<stop stop-color="#EDCF89" stop-opacity="0"/>
<stop offset="1" stop-color="#EDCF89" stop-opacity="0.28"/>
</radialGradient>
<radialGradient id="paint4_radial_5_100" cx="0" cy="0" r="1" gradientUnits="userSpaceOnUse" gradientTransform="translate(162.117 481.218) rotate(51.4779) scale(177.447 183.217)">
<stop stop-color="#EDCF89" stop-opacity="0"/>
<stop offset="1" stop-color="#EDCF89" stop-opacity="0.28"/>
</radialGradient>
<radialGradient id="paint5_radial_5_100" cx="0" cy="0" r="1" gradientUnits="userSpaceOnUse" gradientTransform="translate(162.278 481.033) rotate(51.4779) scale(160.599 166.476)">
<stop stop-color="#EDCF89" stop-opacity="0"/>
<stop offset="1" stop-color="#EDCF89" stop-opacity="0.28"/>
</radialGradient>
<radialGradient id="paint6_radial_5_100" cx="0" cy="0" r="1" gradientUnits="userSpaceOnUse" gradientTransform="translate(162.566 481.004) rotate(51.4779) scale(143.949 149.737)">
<stop stop-color="#EDCF89" stop-opacity="0"/>
<stop offset="1" stop-color="#EDCF89" stop-opacity="0.28"/>
</radialGradient>
<radialGradient id="paint7_radial_5_100" cx="0" cy="0" r="1" gradientUnits="userSpaceOnUse" gradientTransform="translate(163 481.155) rotate(51.4779) scale(127.534 133)">
<stop stop-color="#EDCF89" stop-opacity="0"/>
<stop offset="1" stop-color="#EDCF89" stop-opacity="0.28"/>
</radialGradient>
<radialGradient id="paint8_radial_5_100" cx="0" cy="0" r="1" gradientUnits="userSpaceOnUse" gradientTransform="translate(163.446 481.316) rotate(51.4779) scale(111.133 116.267)">
<stop stop-color="#EDCF89" stop-opacity="0"/>
<stop offset="1" stop-color="#EDCF89" stop-opacity="0.28"/>
</radialGradient>
<radialGradient id="paint9_radial_5_100" cx="0" cy="0" r="1" gradientUnits="userSpaceOnUse" gradientTransform="translate(163.909 481.488) rotate(51.4779) scale(94.7514 99.539)">
<stop stop-color="#EDCF89" stop-opacity="0"/>
<stop offset="1" stop-color="#EDCF89" stop-opacity="0.28"/>
</radialGradient>
<radialGradient id="paint10_radial_5_100" cx="0" cy="0" r="1" gradientUnits="userSpaceOnUse" gradientTransform="translate(164.398 481.679) rotate(51.4779) scale(78.4002 82.8209)">
<stop stop-color="#EDCF89" stop-opacity="0"/>
<stop offset="1" stop-color="#EDCF89" stop-opacity="0.28"/>
</radialGradient>
<radialGradient id="paint11_radial_5_100" cx="0" cy="0" r="1" gradientUnits="userSpaceOnUse" gradientTransform="translate(164.93 481.895) rotate(51.4779) scale(62.0964 66.1202)">
<stop stop-color="#EDCF89" stop-opacity="0"/>
<stop offset="1" stop-color="#EDCF89" stop-opacity="0.28"/>
</radialGradient>
<linearGradient id="paint12_linear_5_100" x1="160.591" y1="582.615" x2="-56.5037" y2="804.748" gradientUnits="userSpaceOnUse">
<stop offset="0.000999756" stop-color="#EDCF89" stop-opacity="0"/>
<stop offset="0.484642" stop-color="#EDCF89"/>
<stop offset="1" stop-color="#EDCF89" stop-opacity="0"/>
</linearGradient>
<radialGradient id="paint13_radial_5_100" cx="0" cy="0" r="1" gradientUnits="userSpaceOnUse" gradientTransform="translate(267.416 915.659) rotate(20.1341) scale(227.993 233.446)">
<stop stop-color="#EDCF89" stop-opacity="0"/>
<stop offset="1" stop-color="#EDCF89" stop-opacity="0.28"/>
</radialGradient>
<radialGradient id="paint14_radial_5_100" cx="0" cy="0" r="1" gradientUnits="userSpaceOnUse" gradientTransform="translate(270.951 913.956) rotate(20.1341) scale(45.8744 49.4568)">
<stop stop-color="#EDCF89" stop-opacity="0"/>
<stop offset="1" stop-color="#EDCF89" stop-opacity="0.28"/>
</radialGradient>
<radialGradient id="paint15_radial_5_100" cx="0" cy="0" r="1" gradientUnits="userSpaceOnUse" gradientTransform="translate(267.457 915.42) rotate(20.1341) scale(211.144 216.702)">
<stop stop-color="#EDCF89" stop-opacity="0"/>
<stop offset="1" stop-color="#EDCF89" stop-opacity="0.28"/>
</radialGradient>
<radialGradient id="paint16_radial_5_100" cx="0" cy="0" r="1" gradientUnits="userSpaceOnUse" gradientTransform="translate(267.496 915.18) rotate(20.1341) scale(194.295 199.959)">
<stop stop-color="#EDCF89" stop-opacity="0"/>
<stop offset="1" stop-color="#EDCF89" stop-opacity="0.28"/>
</radialGradient>
<radialGradient id="paint17_radial_5_100" cx="0" cy="0" r="1" gradientUnits="userSpaceOnUse" gradientTransform="translate(267.538 914.94) rotate(20.1341) scale(177.447 183.217)">
<stop stop-color="#EDCF89" stop-opacity="0"/>
<stop offset="1" stop-color="#EDCF89" stop-opacity="0.28"/>
</radialGradient>
<radialGradient id="paint18_radial_5_100" cx="0" cy="0" r="1" gradientUnits="userSpaceOnUse" gradientTransform="translate(267.581 914.698) rotate(20.1341) scale(160.599 166.476)">
<stop stop-color="#EDCF89" stop-opacity="0"/>
<stop offset="1" stop-color="#EDCF89" stop-opacity="0.28"/>
</radialGradient>
<radialGradient id="paint19_radial_5_100" cx="0" cy="0" r="1" gradientUnits="userSpaceOnUse" gradientTransform="translate(267.811 914.524) rotate(20.1341) scale(143.949 149.737)">
<stop stop-color="#EDCF89" stop-opacity="0"/>
<stop offset="1" stop-color="#EDCF89" stop-opacity="0.28"/>
</radialGradient>
<radialGradient id="paint20_radial_5_100" cx="0" cy="0" r="1" gradientUnits="userSpaceOnUse" gradientTransform="translate(268.26 914.428) rotate(20.1341) scale(127.534 133)">
<stop stop-color="#EDCF89" stop-opacity="0"/>
<stop offset="1" stop-color="#EDCF89" stop-opacity="0.28"/>
</radialGradient>
<radialGradient id="paint21_radial_5_100" cx="0" cy="0" r="1" gradientUnits="userSpaceOnUse" gradientTransform="translate(268.725 914.332) rotate(20.1341) scale(111.133 116.267)">
<stop stop-color="#EDCF89" stop-opacity="0"/>
<stop offset="1" stop-color="#EDCF89" stop-opacity="0.28"/>
</radialGradient>
<radialGradient id="paint22_radial_5_100" cx="0" cy="0" r="1" gradientUnits="userSpaceOnUse" gradientTransform="translate(269.21 914.239) rotate(20.1341) scale(94.7514 99.539)">
<stop stop-color="#EDCF89" stop-opacity="0"/>
<stop offset="1" stop-color="#EDCF89" stop-opacity="0.28"/>
</radialGradient>
<radialGradient id="paint23_radial_5_100" cx="0" cy="0" r="1" gradientUnits="userSpaceOnUse" gradientTransform="translate(269.727 914.147) rotate(20.1341) scale(78.4002 82.8209)">
<stop stop-color="#EDCF89" stop-opacity="0"/>
<stop offset="1" stop-color="#EDCF89" stop-opacity="0.28"/>
</radialGradient>
<radialGradient id="paint24_radial_5_100" cx="0" cy="0" r="1" gradientUnits="userSpaceOnUse" gradientTransform="translate(270.293 914.055) rotate(20.1341) scale(62.0964 66.1202)">
<stop stop-color="#EDCF89" stop-opacity="0"/>
<stop offset="1" stop-color="#EDCF89" stop-opacity="0.28"/>
</radialGradient>
<linearGradient id="paint25_linear_5_100" x1="320.398" y1="1210.57" x2="-0.059046" y2="1280.66" gradientUnits="userSpaceOnUse">
<stop offset="0.000999756" stop-color="#EDCF89" stop-opacity="0"/>
<stop offset="0.484642" stop-color="#EDCF89"/>
<stop offset="1" stop-color="#EDCF89" stop-opacity="0"/>
</linearGradient>
<radialGradient id="paint26_radial_5_100" cx="0" cy="0" r="1" gradientUnits="userSpaceOnUse" gradientTransform="translate(202.33 261.8) rotate(99.0279) scale(227.993 233.446)">
<stop stop-color="#EDCF89" stop-opacity="0"/>
<stop offset="1" stop-color="#EDCF89" stop-opacity="0.28"/>
</radialGradient>
<radialGradient id="paint27_radial_5_100" cx="0" cy="0" r="1" gradientUnits="userSpaceOnUse" gradientTransform="translate(204.682 264.94) rotate(99.0279) scale(45.8744 49.4568)">
<stop stop-color="#EDCF89" stop-opacity="0"/>
<stop offset="1" stop-color="#EDCF89" stop-opacity="0.28"/>
</radialGradient>
<radialGradient id="paint28_radial_5_100" cx="0" cy="0" r="1" gradientUnits="userSpaceOnUse" gradientTransform="translate(202.572 261.793) rotate(99.0279) scale(211.144 216.702)">
<stop stop-color="#EDCF89" stop-opacity="0"/>
<stop offset="1" stop-color="#EDCF89" stop-opacity="0.28"/>
</radialGradient>
<radialGradient id="paint29_radial_5_100" cx="0" cy="0" r="1" gradientUnits="userSpaceOnUse" gradientTransform="translate(202.815 261.786) rotate(99.0279) scale(194.295 199.959)">
<stop stop-color="#EDCF89" stop-opacity="0"/>
<stop offset="1" stop-color="#EDCF89" stop-opacity="0.28"/>
</radialGradient>
<radialGradient id="paint30_radial_5_100" cx="0" cy="0" r="1" gradientUnits="userSpaceOnUse" gradientTransform="translate(203.059 261.781) rotate(99.0279) scale(177.447 183.217)">
<stop stop-color="#EDCF89" stop-opacity="0"/>
<stop offset="1" stop-color="#EDCF89" stop-opacity="0.28"/>
</radialGradient>
<radialGradient id="paint31_radial_5_100" cx="0" cy="0" r="1" gradientUnits="userSpaceOnUse" gradientTransform="translate(203.304 261.776) rotate(99.0279) scale(160.599 166.476)">
<stop stop-color="#EDCF89" stop-opacity="0"/>
<stop offset="1" stop-color="#EDCF89" stop-opacity="0.28"/>
</radialGradient>
<radialGradient id="paint32_radial_5_100" cx="0" cy="0" r="1" gradientUnits="userSpaceOnUse" gradientTransform="translate(203.52 261.968) rotate(99.0279) scale(143.949 149.737)">
<stop stop-color="#EDCF89" stop-opacity="0"/>
<stop offset="1" stop-color="#EDCF89" stop-opacity="0.28"/>
</radialGradient>
<radialGradient id="paint33_radial_5_100" cx="0" cy="0" r="1" gradientUnits="userSpaceOnUse" gradientTransform="translate(203.701 262.39) rotate(99.0279) scale(127.534 133)">
<stop stop-color="#EDCF89" stop-opacity="0"/>
<stop offset="1" stop-color="#EDCF89" stop-opacity="0.28"/>
</radialGradient>
<radialGradient id="paint34_radial_5_100" cx="0" cy="0" r="1" gradientUnits="userSpaceOnUse" gradientTransform="translate(203.884 262.828) rotate(99.0279) scale(111.133 116.267)">
<stop stop-color="#EDCF89" stop-opacity="0"/>
<stop offset="1" stop-color="#EDCF89" stop-opacity="0.28"/>
</radialGradient>
<radialGradient id="paint35_radial_5_100" cx="0" cy="0" r="1" gradientUnits="userSpaceOnUse" gradientTransform="translate(204.069 263.286) rotate(99.0279) scale(94.7514 99.539)">
<stop stop-color="#EDCF89" stop-opacity="0"/>
<stop offset="1" stop-color="#EDCF89" stop-opacity="0.28"/>
</radialGradient>
<radialGradient id="paint36_radial_5_100" cx="0" cy="0" r="1" gradientUnits="userSpaceOnUse" gradientTransform="translate(204.259 263.776) rotate(99.0279) scale(78.4002 82.8209)">
<stop stop-color="#EDCF89" stop-opacity="0"/>
<stop offset="1" stop-color="#EDCF89" stop-opacity="0.28"/>
</radialGradient>
<radialGradient id="paint37_radial_5_100" cx="0" cy="0" r="1" gradientUnits="userSpaceOnUse" gradientTransform="translate(204.458 264.314) rotate(99.0279) scale(62.0964 66.1202)">
<stop stop-color="#EDCF89" stop-opacity="0"/>
<stop offset="1" stop-color="#EDCF89" stop-opacity="0.28"/>
</radialGradient>
<linearGradient id="paint38_linear_5_100" x1="255.246" y1="105.235" x2="258.571" y2="410.682" gradientUnits="userSpaceOnUse">
<stop stop-color="#EDCF89"/>
<stop offset="1" stop-color="#EDCF89" stop-opacity="0"/>
</linearGradient>
</defs>
</svg>
