<svg width="32" height="32" viewBox="0 0 32 32" fill="none" xmlns="http://www.w3.org/2000/svg">
<path d="M25.4646 14.1843C20.3071 11.1215 11.7999 10.8398 6.8764 12.3341C6.08574 12.5741 5.24962 12.1276 5.01012 11.3372C4.77048 10.546 5.21634 9.71047 6.00759 9.47012C11.6594 7.75459 21.0547 8.08588 26.9921 11.6104C27.7032 12.0326 27.9365 12.9511 27.515 13.661C27.0932 14.3721 26.174 14.6065 25.4646 14.1843ZM25.2957 18.7209C24.9338 19.308 24.1661 19.4922 23.5798 19.1317C19.2799 16.4886 12.7234 15.723 7.63639 17.2671C6.97671 17.4665 6.27993 17.0945 6.07955 16.4361C5.88079 15.7764 6.25292 15.0809 6.91141 14.8803C12.7226 13.1169 19.9467 13.971 24.8853 17.0059C25.4716 17.3671 25.6562 18.1351 25.2957 18.7209ZM23.3379 23.0777C23.0503 23.5492 22.4365 23.6969 21.9666 23.4095C18.2094 21.1132 13.4802 20.5946 7.91081 21.8667C7.37412 21.9898 6.83922 21.6535 6.71683 21.1168C6.5939 20.5803 6.92895 20.0453 7.46682 19.9229C13.5616 18.5296 18.7897 19.1292 23.007 21.7062C23.4772 21.9934 23.6252 22.6076 23.3379 23.0777ZM16.0001 0C7.16359 0 0 7.16344 0 15.9998C0 24.8372 7.16359 32 16.0001 32C24.8367 32 32 24.8372 32 15.9998C32 7.16344 24.8367 0 16.0001 0Z" fill="#E4C66B"/>
</svg>
