<svg width="14" height="12" viewBox="0 0 14 12" fill="none" xmlns="http://www.w3.org/2000/svg">
<path d="M7.17116 0C7.54498 0.00210011 8.48022 0.0112005 9.47427 0.0511025L9.82709 0.0665032C10.8274 0.113406 11.8271 0.19461 12.3234 0.332517C12.9849 0.518726 13.5044 1.06055 13.6801 1.74799C13.9601 2.84004 13.9951 4.96955 13.9993 5.48548L14 5.59188V5.71369C13.9951 6.22961 13.9601 8.35982 13.6801 9.45117C13.5023 10.1407 12.9821 10.6832 12.3234 10.8666C11.8271 11.0046 10.8274 11.0858 9.82709 11.1327L9.47427 11.1488C8.48022 11.188 7.54498 11.1978 7.17116 11.1992L7.00665 11.1999H6.82814C6.0371 11.195 2.72874 11.1593 1.67588 10.8666C1.01505 10.6804 0.494925 10.1386 0.319216 9.45117C0.039202 8.35912 0.00420021 6.22961 0 5.71369V5.48548C0.00420021 4.96955 0.039202 2.83934 0.319216 1.74799C0.497025 1.05845 1.01715 0.515926 1.67658 0.333217C2.72874 0.0399019 6.0378 0.00420021 6.82884 0H7.17116ZM5.59958 3.15016V8.0504L9.79979 5.60028L5.59958 3.15016Z" fill="#150F23"/>
</svg>
