<svg width="164" height="233" viewBox="0 0 164 233" fill="none" xmlns="http://www.w3.org/2000/svg">
<g filter="url(#filter0_d_4414_1388)">
<path d="M4 4C4 1.79087 5.79086 0 8 0H156C158.209 0 160 1.79086 160 4V221C160 223.209 158.209 225 156 225H8C5.79086 225 4 223.209 4 221V4Z" fill="url(#paint0_linear_4414_1388)"/>
<path d="M4.5 4C4.5 2.06701 6.067 0.5 8 0.5H156C157.933 0.5 159.5 2.067 159.5 4V221C159.5 222.933 157.933 224.5 156 224.5H8C6.067 224.5 4.5 222.933 4.5 221V4Z" stroke="url(#paint1_linear_4414_1388)"/>
</g>
<path d="M18.2601 12.7299L21.0905 20.0216C21.1993 20.3011 21.3196 20.4953 21.4516 20.604C21.5914 20.7049 21.7156 20.7593 21.8244 20.767V21C21.5914 20.9845 21.3157 20.9767 20.9974 20.9767C20.6867 20.9689 20.3722 20.9651 20.0539 20.9651C19.6967 20.9651 19.3589 20.9689 19.0405 20.9767C18.7221 20.9767 18.4697 20.9845 18.2834 21V20.767C18.6794 20.7515 18.9279 20.6855 19.0288 20.569C19.1376 20.4448 19.1143 20.1846 18.959 19.7886L16.9788 14.3723L17.1885 14.0695L15.418 18.6821C15.2471 19.1091 15.1423 19.4586 15.1035 19.7304C15.0724 20.0022 15.0918 20.2118 15.1617 20.3594C15.2394 20.5069 15.3597 20.6117 15.5228 20.6739C15.6936 20.7282 15.8955 20.7593 16.1285 20.767V21C15.8722 20.9845 15.6276 20.9767 15.3947 20.9767C15.1617 20.9689 14.9249 20.9651 14.6841 20.9651C14.5133 20.9651 14.3502 20.9689 14.1949 20.9767C14.0474 20.9767 13.9154 20.9845 13.7989 21V20.767C13.962 20.736 14.1289 20.6311 14.2998 20.4525C14.4706 20.2739 14.6376 19.9711 14.8006 19.544L17.4564 12.7299C17.5806 12.7377 17.7126 12.7416 17.8524 12.7416C17.9999 12.7416 18.1358 12.7377 18.2601 12.7299ZM19.0754 17.6454V17.8783H15.6043L15.7208 17.6454H19.0754Z" fill="url(#paint2_linear_4414_1388)"/>
<path d="M14.1365 30.6158C13.2074 29.4756 12.9872 27.8847 14.0062 26.8428C15.1076 25.7167 16.7838 26.043 17.8008 27.0828C18.8178 26.043 20.494 25.7167 21.5953 26.8428C22.6143 27.8847 22.3941 29.4756 21.4651 30.6158C20.4619 31.847 19.0884 32.9049 17.8008 33.8222C16.5131 32.9049 15.1397 31.847 14.1365 30.6158Z" fill="url(#paint3_linear_4414_1388)"/>
<path d="M145.456 212.592L142.626 205.301C142.517 205.021 142.397 204.827 142.265 204.718C142.125 204.617 142.001 204.563 141.892 204.555V204.322C142.125 204.338 142.401 204.346 142.719 204.346C143.03 204.353 143.344 204.357 143.662 204.357C144.02 204.357 144.357 204.353 144.676 204.346C144.994 204.346 145.247 204.338 145.433 204.322V204.555C145.037 204.571 144.788 204.637 144.687 204.753C144.579 204.877 144.602 205.138 144.757 205.534L146.738 210.95L146.528 211.253L148.298 206.64C148.469 206.213 148.574 205.864 148.613 205.592C148.644 205.32 148.624 205.11 148.555 204.963C148.477 204.815 148.357 204.711 148.194 204.648C148.023 204.594 147.821 204.563 147.588 204.555V204.322C147.844 204.338 148.089 204.346 148.322 204.346C148.555 204.353 148.791 204.357 149.032 204.357C149.203 204.357 149.366 204.353 149.521 204.346C149.669 204.346 149.801 204.338 149.917 204.322V204.555C149.754 204.586 149.587 204.691 149.417 204.87C149.246 205.048 149.079 205.351 148.916 205.778L146.26 212.592C146.136 212.585 146.004 212.581 145.864 212.581C145.716 212.581 145.58 212.585 145.456 212.592ZM144.641 207.677V207.444H148.112L147.995 207.677H144.641Z" fill="url(#paint4_linear_4414_1388)"/>
<path d="M149.58 194.706C150.509 195.847 150.729 197.438 149.71 198.48C148.609 199.606 146.933 199.279 145.916 198.239C144.899 199.279 143.222 199.606 142.121 198.48C141.102 197.438 141.322 195.847 142.251 194.706C143.254 193.475 144.628 192.417 145.916 191.5C147.203 192.417 148.577 193.475 149.58 194.706Z" fill="url(#paint5_linear_4414_1388)"/>
<defs>
<filter id="filter0_d_4414_1388" x="0" y="0" width="164" height="233" filterUnits="userSpaceOnUse" colorInterpolationFilters="sRGB">
<feFlood flood-opacity="0" result="BackgroundImageFix"/>
<feColorMatrix in="SourceAlpha" type="matrix" values="0 0 0 0 0 0 0 0 0 0 0 0 0 0 0 0 0 0 127 0" result="hardAlpha"/>
<feOffset dy="4"/>
<feGaussianBlur stdDeviation="2"/>
<feComposite in2="hardAlpha" operator="out"/>
<feColorMatrix type="matrix" values="0 0 0 0 0 0 0 0 0 0 0 0 0 0 0 0 0 0 0.25 0"/>
<feBlend mode="normal" in2="BackgroundImageFix" result="effect1_dropShadow_4414_1388"/>
<feBlend mode="normal" in="SourceGraphic" in2="effect1_dropShadow_4414_1388" result="shape"/>
</filter>
<linearGradient id="paint0_linear_4414_1388" x1="5.11402" y1="2.31637e-06" x2="158.287" y2="225.407" gradientUnits="userSpaceOnUse">
<stop stopColor="#0D0D0D"/>
<stop offset="0.245" stopColor="#181818"/>
<stop offset="0.565" stopColor="#0B0B0B"/>
<stop offset="1" stopColor="#1A1A1A"/>
</linearGradient>
<linearGradient id="paint1_linear_4414_1388" x1="3.83291" y1="-1.89647e-07" x2="154.567" y2="228.443" gradientUnits="userSpaceOnUse">
<stop stopColor="#D4A753"/>
<stop offset="0.335" stopColor="#9C7835"/>
<stop offset="1" stopColor="#BD964D"/>
</linearGradient>
<linearGradient id="paint2_linear_4414_1388" x1="12.0459" y1="8.15017" x2="28.6169" y2="14.5455" gradientUnits="userSpaceOnUse">
<stop stopColor="#D4A753"/>
<stop offset="0.39" stopColor="#93702D"/>
<stop offset="0.97" stopColor="#D4A753"/>
</linearGradient>
<linearGradient id="paint3_linear_4414_1388" x1="13.37" y1="26.1954" x2="22.6108" y2="33.1759" gradientUnits="userSpaceOnUse">
<stop stopColor="#D4A753"/>
<stop offset="0.39" stopColor="#93702D"/>
<stop offset="0.97" stopColor="#D4A753"/>
</linearGradient>
<linearGradient id="paint4_linear_4414_1388" x1="151.67" y1="217.172" x2="135.099" y2="210.777" gradientUnits="userSpaceOnUse">
<stop stopColor="#D4A753"/>
<stop offset="0.39" stopColor="#93702D"/>
<stop offset="0.97" stopColor="#D4A753"/>
</linearGradient>
<linearGradient id="paint5_linear_4414_1388" x1="150.346" y1="199.127" x2="141.106" y2="192.146" gradientUnits="userSpaceOnUse">
<stop stopColor="#D4A753"/>
<stop offset="0.39" stopColor="#93702D"/>
<stop offset="0.97" stopColor="#D4A753"/>
</linearGradient>
</defs>
</svg>
