<svg width="18" height="14" viewBox="0 0 18 14" fill="none" xmlns="http://www.w3.org/2000/svg">
<path d="M17.4251 3.96714V11.2931C17.4251 11.9746 17.1543 12.6282 16.6724 13.1102C16.1905 13.5921 15.5369 13.8628 14.8553 13.8628H3.54829C2.86675 13.8628 2.21311 13.5921 1.73119 13.1102C1.24926 12.6282 0.978516 11.9746 0.978516 11.2931V3.96714L8.94071 8.65236C9.01982 8.69901 9.10997 8.72362 9.2018 8.72362C9.29364 8.72362 9.38379 8.69901 9.46289 8.65236L17.4251 3.96714ZM14.8553 0.5C15.4876 0.499901 16.0978 0.732931 16.5691 1.15451C17.0403 1.57609 17.3396 2.15662 17.4097 2.78505L9.2018 7.61314L0.993934 2.78505C1.06399 2.15662 1.36329 1.57609 1.83455 1.15451C2.30582 0.732931 2.91598 0.499901 3.54829 0.5H14.8553Z" fill="url(#paint0_linear_2450_1712)"/>
<defs>
<linearGradient id="paint0_linear_2450_1712" x1="1.04297" y1="0.601693" x2="17.3392" y2="13.6387" gradientUnits="userSpaceOnUse">
<stop stop-color="#D4A753"/>
<stop offset="0.39" stop-color="#93702D"/>
<stop offset="0.97" stop-color="#D4A753"/>
</linearGradient>
</defs>
</svg>
