<svg width="14" height="14" viewBox="0 0 14 14" fill="none" xmlns="http://www.w3.org/2000/svg">
<path d="M12.5833 13.8628C11.0367 13.8628 9.50865 13.5258 7.99915 12.8517C6.48964 12.1776 5.11624 11.2217 3.87894 9.98391C2.64164 8.74611 1.68595 7.37271 1.01186 5.8637C0.337783 4.35469 0.00049492 2.82662 0 1.2795C0 1.05679 0.074238 0.87119 0.222714 0.722714C0.37119 0.574238 0.556785 0.5 0.779499 0.5H3.78614C3.95936 0.5 4.11402 0.558895 4.25013 0.676686C4.38623 0.794477 4.46665 0.93355 4.4914 1.0939L4.97395 3.69223C4.99869 3.8902 4.99251 4.05724 4.95539 4.19334C4.91827 4.32944 4.85022 4.44699 4.75123 4.54597L2.95096 6.3648C3.19842 6.8226 3.49216 7.26482 3.83217 7.69144C4.17218 8.11806 4.54658 8.52958 4.95539 8.92601C5.33895 9.30958 5.74107 9.66543 6.16176 9.99356C6.58244 10.3217 7.02787 10.6216 7.49804 10.8933L9.24263 9.14873C9.35399 9.03737 9.4995 8.95398 9.67915 8.89855C9.85881 8.84311 10.035 8.82753 10.2077 8.85178L12.7689 9.37144C12.9422 9.42093 13.0844 9.51076 13.1958 9.64093C13.3072 9.77109 13.3628 9.91635 13.3628 10.0767V13.0833C13.3628 13.3061 13.2886 13.4917 13.1401 13.6401C12.9917 13.7886 12.8061 13.8628 12.5833 13.8628Z" fill="url(#paint0_linear_2450_1711)"/>
<defs>
<linearGradient id="paint0_linear_2450_1711" x1="-2.41627" y1="0.601692" x2="15.1837" y2="13.6387" gradientUnits="userSpaceOnUse">
<stop stopColor="#C99D4C"/>
<stop offset="0.375" stopColor="#84611F"/>
<stop offset="1" stopColor="#CEA14F"/>
</linearGradient>
</defs>
</svg>
