<svg width="103" height="98" viewBox="0 0 103 98" fill="none" xmlns="http://www.w3.org/2000/svg">
<path d="M1.41309 90.7956V6.55438C1.41309 3.48679 3.89986 1.00002 6.96745 1.00002H48.176C49.6491 1.00002 51.0619 1.58521 52.1035 2.62685L64.5872 15.1106C65.6289 16.1522 67.0416 16.7374 68.5147 16.7374H95.8373C98.9049 16.7374 101.392 19.2242 101.392 22.2918V90.7956C101.392 93.8632 98.9049 96.35 95.8373 96.35H6.96745C3.89986 96.35 1.41309 93.8632 1.41309 90.7956Z" fill="#FFD600" stroke="#FFD600" stroke-width="1.85146"/>
<path d="M50.2364 28.7719C36.597 28.7719 25.4824 39.8864 25.4824 53.5258C25.4824 67.1653 36.597 78.2798 50.2364 78.2798C51.8777 78.2798 53.4517 77.6278 54.6123 76.4672C55.7729 75.3066 56.4249 73.7326 56.4249 72.0913C56.4249 70.5813 55.8555 69.1208 54.8406 67.9574C54.6427 67.7301 54.5291 67.4417 54.5188 67.1405C54.5188 66.4474 55.0634 65.9028 55.7565 65.9028H60.138C68.3315 65.9028 74.9904 59.244 74.9904 51.0504C74.9904 38.7725 63.8758 28.7719 50.2364 28.7719ZM63.8511 56.0012C61.7965 56.0012 60.138 54.3427 60.138 52.2881C60.138 50.2335 61.7965 48.575 63.8511 48.575C65.9056 48.575 67.5642 50.2335 67.5642 52.2881C67.5642 54.3427 65.9056 56.0012 63.8511 56.0012ZM56.4249 46.0996C54.3703 46.0996 52.7118 44.4411 52.7118 42.3865C52.7118 40.332 54.3703 38.6734 56.4249 38.6734C58.4795 38.6734 60.138 40.332 60.138 42.3865C60.138 44.4411 58.4795 46.0996 56.4249 46.0996ZM32.9086 52.2881C32.9086 50.2335 34.5671 48.575 36.6217 48.575C38.6763 48.575 40.3348 50.2335 40.3348 52.2881C40.3348 54.3427 38.6763 56.0012 36.6217 56.0012C34.5671 56.0012 32.9086 54.3427 32.9086 52.2881ZM47.761 42.3865C47.761 44.4411 46.1025 46.0996 44.0479 46.0996C41.9933 46.0996 40.3348 44.4411 40.3348 42.3865C40.3348 40.332 41.9933 38.6734 44.0479 38.6734C46.1025 38.6734 47.761 40.332 47.761 42.3865Z" fill="black"/>
</svg>
