<svg width="103" height="98" viewBox="0 0 103 98" fill="none" xmlns="http://www.w3.org/2000/svg">
<path d="M1.85352 91.0072V6.76598C1.85352 3.69838 4.34029 1.21161 7.40789 1.21161H48.6164C50.0895 1.21161 51.5023 1.7968 52.5439 2.83844L65.0277 15.3222C66.0693 16.3638 67.4821 16.949 68.9552 16.949H96.2778C99.3454 16.949 101.832 19.4358 101.832 22.5034V91.0072C101.832 94.0748 99.3454 96.5616 96.2778 96.5616H7.40788C4.34029 96.5616 1.85352 94.0748 1.85352 91.0072Z" fill="#FFD600" stroke="#FFD600" stroke-width="1.85146"/>
<path d="M73.5262 36.753H66.042C65.6615 36.753 65.1896 36.5069 64.8217 36.1188L61.5312 30.9255C61.4792 30.8431 61.4211 30.7647 61.3574 30.6909C60.2209 29.3653 58.6847 28.6346 57.0357 28.6346H45.3654C43.7164 28.6346 42.1802 29.3653 41.0437 30.6909C40.98 30.7647 40.9219 30.8431 40.8699 30.9255L37.5794 36.1264C37.2978 36.4334 36.902 36.7606 36.4859 36.7606V35.7458C36.4859 35.2076 36.2721 34.6913 35.8915 34.3107C35.5109 33.9301 34.9946 33.7162 34.4563 33.7162H31.4119C30.8737 33.7162 30.3574 33.9301 29.9768 34.3107C29.5962 34.6913 29.3823 35.2076 29.3823 35.7458V36.7606H28.8749C27.2606 36.7623 25.7129 37.4044 24.5714 38.5459C23.4298 39.6874 22.7878 41.2351 22.7861 42.8494V67.197C22.7878 68.8114 23.4298 70.3591 24.5714 71.5006C25.7129 72.6421 27.2606 73.2842 28.8749 73.2859H73.5262C75.1405 73.2842 76.6882 72.6421 77.8297 71.5006C78.9713 70.3591 79.6133 68.8114 79.615 67.197V42.8418C79.6133 41.2275 78.9713 39.6798 77.8297 38.5383C76.6882 37.3967 75.1405 36.7547 73.5262 36.753ZM51.2006 65.1674C48.792 65.1674 46.4376 64.4532 44.435 63.1152C42.4324 61.7771 40.8716 59.8752 39.9499 57.65C39.0282 55.4248 38.7871 52.9763 39.2569 50.6141C39.7268 48.2519 40.8866 46.082 42.5897 44.379C44.2928 42.6759 46.4626 41.5161 48.8248 41.0462C51.187 40.5763 53.6356 40.8175 55.8607 41.7392C58.0859 42.6609 59.9878 44.2217 61.3259 46.2243C62.664 48.2269 63.3782 50.5813 63.3782 52.9898C63.3745 56.2184 62.0903 59.3137 59.8073 61.5966C57.5244 63.8796 54.4291 65.1638 51.2006 65.1674Z" fill="black"/>
</svg>
