<svg width="102" height="98" viewBox="0 0 102 98" fill="none" xmlns="http://www.w3.org/2000/svg">
<path d="M1 90.7956V6.55437C1 3.48678 3.48677 1 6.55437 1H47.7629C49.236 1 50.6488 1.58519 51.6904 2.62684L64.1741 15.1105C65.2158 16.1522 66.6285 16.7374 68.1017 16.7374H95.4242C98.4918 16.7374 100.979 19.2242 100.979 22.2917V90.7956C100.979 93.8632 98.4918 96.35 95.4242 96.35H6.55437C3.48678 96.35 1 93.8632 1 90.7956Z" fill="#FFD600" stroke="#FFD600" stroke-width="1.85146"/>
<path d="M56.0008 32.4849C56.0008 34.5395 54.3423 36.198 52.2878 36.198C50.2332 36.198 48.5747 34.5395 48.5747 32.4849C48.5747 30.4304 50.2332 28.7719 52.2878 28.7719C54.3423 28.7719 56.0008 30.4304 56.0008 32.4849ZM42.3862 36.198C40.3316 36.198 38.6731 37.8566 38.6731 39.9111C38.6731 41.9657 40.3316 43.6242 42.3862 43.6242C44.4407 43.6242 46.0993 41.9657 46.0993 39.9111C46.0993 37.8566 44.4407 36.198 42.3862 36.198ZM56.0008 53.5258L54.07 47.9562H61.3972L66.7441 45.2827C67.66 44.8619 68.0313 43.7232 67.561 42.8074C67.4562 42.5873 67.3085 42.3904 67.1264 42.2284C66.9443 42.0664 66.7316 41.9425 66.5009 41.8641C66.2701 41.7856 66.026 41.7542 65.7829 41.7716C65.5398 41.7891 65.3027 41.8551 65.0856 41.9657L63.0557 42.9806L61.8428 40.9013C61.1249 39.2923 59.3674 38.3764 57.6346 38.7725L51.5204 40.0844C49.8124 40.4557 48.5747 42.0152 48.5747 43.7975V45.5303L42.5594 49.5404H42.5842C42.3862 49.7137 42.1139 49.9365 41.9653 50.2335L39.7622 54.615L35.356 56.8181C34.4401 57.2389 34.0688 58.4023 34.5392 59.3182C34.7632 59.7573 35.152 60.0898 35.6206 60.2429C36.0891 60.396 36.5992 60.3572 37.0393 60.1351L42.5347 57.3874L45.1091 52.2881L48.5747 56.0012C46.0993 63.4274 28.7715 73.329 28.7715 73.329C28.7715 73.329 38.6731 78.2798 51.0501 78.2798C63.427 78.2798 73.3286 73.329 73.3286 73.329C73.3286 73.329 60.9516 63.4274 56.0008 53.5258ZM63.0557 51.2732L62.2636 51.6693H59.2931L59.4417 52.0653C60.7289 54.615 62.6102 57.2389 64.6647 59.5658L63.3528 51.1247L63.0557 51.2732Z" fill="black"/>
</svg>
