<svg width="103" height="98" viewBox="0 0 103 98" fill="none" xmlns="http://www.w3.org/2000/svg">
<path d="M1.82715 90.7956V6.55437C1.82715 3.48678 4.31392 1 7.38152 1H48.59C50.0631 1 51.4759 1.58519 52.5176 2.62684L65.0013 15.1105C66.0429 16.1522 67.4557 16.7374 68.9288 16.7374H96.2514C99.319 16.7374 101.806 19.2242 101.806 22.2917V90.7956C101.806 93.8632 99.319 96.35 96.2514 96.35H7.38152C4.31392 96.35 1.82715 93.8632 1.82715 90.7956Z" fill="#FFD600" stroke="#FFD600" stroke-width="1.85146"/>
<path d="M41.5883 26.9204C42.3707 26.9204 43.0227 27.4922 43.2635 28.2445C44.4973 32.1265 48.1386 34.9453 52.442 34.9453C56.7453 34.9453 60.3866 32.1265 61.6205 28.2445C61.8612 27.4922 62.5132 26.9204 63.2957 26.9204H64.5596C66.8166 26.9204 68.9933 27.7128 70.7287 29.1573L83.388 39.7C84.0501 40.2518 84.4613 41.0543 84.5316 41.9169C84.6018 42.7796 84.3209 43.6323 83.7491 44.2843L78.1317 50.7042C76.9882 52.0183 75.002 52.1687 73.6578 51.0553L68.4918 46.7519V71.8599C68.4918 75.4008 65.6129 78.2798 62.0719 78.2798H42.8121C39.2711 78.2798 36.3922 75.4008 36.3922 71.8599V46.7519L31.2261 51.0553C29.892 52.1687 27.9058 52.0183 26.7523 50.7042L21.1348 44.2843C20.563 43.6323 20.2822 42.7796 20.3524 41.9169C20.4226 41.0543 20.8339 40.2518 21.4959 39.7L34.1552 29.1573C35.8906 27.7128 38.0674 26.9204 40.3244 26.9204H41.5883Z" fill="black"/>
</svg>
