<svg width="102" height="98" viewBox="0 0 102 98" fill="none" xmlns="http://www.w3.org/2000/svg">
<path d="M1 90.7993V6.5546C1 3.48688 3.48688 1 6.5546 1H47.7648C49.238 1 50.6508 1.58522 51.6925 2.62691L64.1767 15.1111C65.2184 16.1528 66.6312 16.738 68.1044 16.738H95.4281C98.4959 16.738 100.983 19.2249 100.983 22.2926V90.7993C100.983 93.867 98.4958 96.3539 95.4281 96.3539H6.5546C3.48688 96.3539 1 93.867 1 90.7993Z" fill="#FFD600" stroke="#FFD600" stroke-width="1.85153"/>
<path fill-rule="evenodd" clip-rule="evenodd" d="M67.0822 28.4419C67.8359 28.3162 68.608 28.3561 69.3447 28.559C70.0814 28.7618 70.7651 29.1226 71.3483 29.6164C71.9314 30.1102 72.4001 30.725 72.7216 31.4182C73.0431 32.1114 73.2098 32.8663 73.2101 33.6305V64.7306C73.2096 67.0473 72.4447 69.2992 71.034 71.1369C69.6233 72.9746 67.6457 74.2954 65.4078 74.8947C63.1699 75.4939 60.7968 75.338 58.6566 74.4511C56.5163 73.5643 54.7285 71.996 53.5704 69.9895C52.4123 67.9831 51.9485 65.6505 52.2511 63.3536C52.5537 61.0568 53.6057 58.9239 55.2439 57.2858C56.8822 55.6478 59.0152 54.596 61.3121 54.2937C63.609 53.9913 65.9415 54.4553 67.9478 55.6137V44.1551L41.6364 48.5412V67.3618C41.6364 67.5196 41.6232 67.6722 41.5969 67.8196C41.7858 69.8429 41.3002 71.8718 40.2157 73.5903C39.1312 75.3088 37.5087 76.6204 35.6011 77.3206C33.6935 78.0209 31.6078 78.0705 29.669 77.4617C27.7303 76.853 26.0473 75.62 24.8823 73.955C23.7174 72.29 23.1358 70.2865 23.2283 68.2565C23.3208 66.2265 24.0821 64.2841 25.3937 62.7319C26.7052 61.1798 28.4933 60.105 30.4794 59.6751C32.4655 59.2452 34.538 59.4842 36.3741 60.355V38.0166C36.3739 36.7709 36.8157 35.5656 37.6208 34.615C38.4258 33.6644 39.542 33.0303 40.7707 32.8253L67.0822 28.4419ZM41.6364 43.2078L67.9478 38.8217V33.6305L41.6364 38.0166V43.2078Z" fill="black"/>
</svg>
