<svg width="102" height="98" viewBox="0 0 102 98" fill="none" xmlns="http://www.w3.org/2000/svg">
<path d="M1 91.467V7.22229C1 4.15457 3.48688 1.66769 6.5546 1.66769H47.7648C49.238 1.66769 50.6508 2.25291 51.6925 3.2946L64.1767 15.7788C65.2184 16.8205 66.6312 17.4057 68.1044 17.4057H95.4281C98.4959 17.4057 100.983 19.8926 100.983 22.9603V91.467C100.983 94.5347 98.4958 97.0216 95.4281 97.0216H6.5546C3.48688 97.0216 1 94.5347 1 91.467Z" fill="#FFD600" stroke="#FFD600" stroke-width="1.85153"/>
<path d="M45.2882 43.9099L30.4771 64.1472C30.1286 64.6233 29.962 65.2083 30.0073 65.7966C30.0526 66.3848 30.3069 66.9375 30.7242 67.3545L32.743 69.3758C33.1664 69.7987 33.7289 70.0536 34.3261 70.0932C34.9232 70.1327 35.5144 69.9542 35.9899 69.5908L55.3945 54.7797" stroke="black" stroke-width="5" stroke-linecap="round" stroke-linejoin="round"/>
<path d="M58.8804 77.4484C56.4094 75.783 53.6222 74.5475 50.232 74.5475C45.1467 74.5475 40.526 80.3691 35.4062 79.4895C30.2863 78.6098 28.5492 71.1648 31.6997 68.3701" stroke="black" stroke-width="5" stroke-linecap="round" stroke-linejoin="round"/>
<path d="M57.6439 54.7797C64.4673 54.7797 69.9988 49.2483 69.9988 42.4249C69.9988 35.6015 64.4673 30.07 57.6439 30.07C50.8205 30.07 45.2891 35.6015 45.2891 42.4249C45.2891 49.2483 50.8205 54.7797 57.6439 54.7797Z" stroke="black" stroke-width="5" stroke-linecap="round" stroke-linejoin="round"/>
</svg>
