<svg width="104" height="104" viewBox="0 0 104 104" fill="none" xmlns="http://www.w3.org/2000/svg">
<path d="M67.2462 103.999L65.3187 102.607C60.6773 99.2631 57.7375 92.1544 56.0576 80.2504L55.8746 78.9589L56.7681 79.9597C61.8617 85.6669 69.3458 88.9407 77.3145 88.9407C92.0244 88.9407 103.999 77.8073 103.999 64.1309C103.999 50.4545 92.0244 39.3212 77.3145 39.3212C76.496 39.3212 75.6671 39.3611 74.8486 39.4211L74.0089 39.4913L74.4719 38.8407C77.3471 34.7757 78.8761 30.0601 78.8761 25.1941C78.8761 11.5178 66.9015 0.384372 52.1917 0.384373C37.482 0.384375 25.5073 11.5178 25.5073 25.1941C25.5073 30.0601 27.0256 34.7757 29.9116 38.8407L30.3746 39.4913L29.5349 39.4211C28.7164 39.3514 27.887 39.3212 27.0689 39.3212C12.3587 39.3212 0.384555 50.4546 0.384556 64.1309C0.384557 77.8073 12.3587 88.9407 27.069 88.9407C35.0373 88.9407 42.5213 85.6669 47.6149 79.9597L48.5089 78.9589L48.3259 80.2504C46.6568 92.1544 43.7171 99.2631 39.0648 102.607L37.1373 103.999L67.2353 103.999L67.2462 103.999Z" fill="#140D1E"/>
</svg>
