<svg width="104" height="104" viewBox="0 0 104 104" fill="none" xmlns="http://www.w3.org/2000/svg">
<path d="M3.97308 44.5964C10.8853 32.7868 25.0298 15.7879 51.463 0.0925062C51.6702 -0.0308821 51.9403 -0.0308821 52.1457 0.0925062C78.5753 15.7879 92.7234 32.27 99.6375 44.0796C107.769 57.9688 103.132 74.7496 88.3441 81.8453C84.4884 83.6944 81.6854 83.9376 78.3606 83.9376C78.3606 83.9376 77.5466 83.9108 76.207 83.7176C70.2643 82.8593 64.8008 80.0678 60.5732 75.9406L59.9719 75.354C59.0931 74.4957 57.5852 75.1699 57.7017 76.3733C58.3289 82.8915 59.5482 92.6695 64.7083 98.889C66.2902 100.795 64.9951 103.61 62.4659 103.61L41.1261 103.61C38.6044 103.61 37.3185 100.802 38.8986 98.9015C44.1234 92.6141 45.3038 82.684 45.9421 76.1641C46.042 75.1466 44.7432 74.5976 44.0309 75.354C40.3454 79.2774 35.5905 82.1601 30.2879 83.5084C27.3369 84.2595 25.2536 84.4562 25.2536 84.4562C21.9289 84.4562 19.124 84.213 15.2702 82.3639C0.478122 75.2664 -4.15837 58.4856 3.97308 44.5964Z" fill="#140D1E"/>
</svg>
