<svg width="104" height="104" viewBox="0 0 104 104" fill="none" xmlns="http://www.w3.org/2000/svg">
<path d="M0.14287 23.5582C0.535241 19.5231 1.80876 15.775 3.98686 12.3147C6.80692 7.81953 10.6749 4.42775 15.6256 2.24357C17.9225 1.23178 20.3268 0.55322 22.8378 0.300523C32.0129 -0.607576 39.5347 2.47363 45.4728 9.21038C48.5196 12.6711 50.3762 16.7062 51.2688 21.144C51.5423 22.4891 51.6497 23.8573 51.8159 25.1796C51.8279 25.0412 51.8758 24.8459 51.8873 24.639C52.042 21.3741 52.8039 18.2471 54.1842 15.2691C57.1595 8.86556 61.9435 4.23244 68.7154 1.62241C72.1311 0.312108 75.701 -0.182213 79.3787 0.0589068C84.5317 0.392649 89.1255 2.11723 93.1716 5.18685C97.1941 8.22174 100.062 12.0963 101.847 16.7178C103.228 20.3165 103.763 24.0299 103.573 27.8697C103.24 34.3653 101.205 40.3782 98.1342 46.1032C96.0278 50.0467 93.4929 53.7143 90.7439 57.2667C87.5784 61.3597 84.1507 65.2342 80.6043 69.0166C75.9391 73.983 71.2145 78.9035 66.5733 83.893C62.5032 88.2734 58.6232 92.8029 55.3743 97.804C54.2321 99.5633 53.2561 101.437 52.2088 103.265C52.1494 103.368 52.09 103.472 52.0186 103.61C51.9592 103.529 51.9113 103.46 51.8758 103.391C49.6623 98.9421 46.7463 94.9302 43.5928 91.0788C40.4033 87.1811 36.9522 83.5024 33.4771 79.8463C28.8474 74.9947 24.1822 70.1658 19.6363 65.2453C15.1139 60.3363 10.925 55.163 7.42596 49.495C4.83152 45.3104 2.72533 40.9184 1.4044 36.1815C0.773382 33.9052 0.333064 31.5947 0.154335 29.2379C0.118902 28.6973 0.0475195 28.1687 0.00010168 27.6281L0.000101906 25.0412C0.0595046 24.5585 0.118907 24.0873 0.166325 23.6046L0.14287 23.5582Z" fill="#140D1E"/>
</svg>
