<svg width="26" height="18" viewBox="0 0 26 18" fill="none" xmlns="http://www.w3.org/2000/svg">
<path d="M16.0754 3.64805C14.4276 5.8617 11.5896 6.42629 10.308 6.38288C13.0543 4.82008 13.9712 3.61081 13.6036 2.21555C13.3291 1.1734 11.1777 1.34735 10.0333 1.5644C10.9946 0.78302 13.329 -0.571376 14.9768 0.262098C16.6246 1.09557 16.6572 2.8664 16.0754 3.64805Z" fill="#E5C66C"/>
<path d="M10.0334 8.26078V8.2619V9.70113C12.0539 9.50908 16.546 10.0468 18.3503 13.7341L20.1829 12.0057L19.0551 10.7094C18.8672 10.1332 18.8296 9.15379 20.1829 9.84516L21.0287 10.7094C21.7802 10.0855 23.7336 8.7228 25.5374 8.26134C23.7336 7.79989 21.7802 6.43721 21.0287 5.81331L20.1829 6.67752C18.8296 7.36889 18.8672 6.38945 19.0551 5.81331L20.1829 4.517L18.3503 2.78858C16.546 6.47587 12.0539 7.0136 10.0334 6.82156V8.26078Z" fill="#E5C66C"/>
<path d="M16.0756 13.214C14.4278 10.6841 11.5899 10.0389 10.3082 10.0885C13.0546 11.8745 13.9714 13.2566 13.6039 14.8511C13.3293 16.0422 11.1779 15.8434 10.0336 15.5953C10.9948 16.4883 13.3292 18.0362 14.9771 17.0837C16.6249 16.1311 16.6575 14.1073 16.0756 13.214Z" fill="#E5C66C"/>
<path d="M9.12134 8.26081V8.26188L9.12134 13.7341H7.29708L7.29708 8.26188V8.26081L7.29708 2.78858H9.12134L9.12134 8.26081Z" fill="#E5C66C"/>
<path d="M5.4729 8.26063V8.26187V9.68855C4.77126 9.79432 3.03121 10.3866 1.68407 11.9098C1.73084 11.4867 1.88053 10.5453 2.10505 10.1645L0.000826359 8.26125L2.10505 6.35798C1.88053 5.9772 1.73084 5.03583 1.68407 4.61275C3.03121 6.13586 4.77126 6.72818 5.4729 6.83395L5.4729 8.26063Z" fill="#E5C66C"/>
</svg>
