<svg width="42" height="42" viewBox="0 0 42 42" fill="none" xmlns="http://www.w3.org/2000/svg">
<path fill-rule="evenodd" clip-rule="evenodd" d="M22.2373 32.4874C21.9091 32.8154 21.464 32.9997 21 32.9997C20.536 32.9997 20.0909 32.8154 19.7628 32.4874L9.86301 22.5876C9.69586 22.4262 9.56254 22.2331 9.47083 22.0196C9.37911 21.8061 9.33084 21.5764 9.32882 21.3441C9.3268 21.1117 9.37108 20.8813 9.45907 20.6662C9.54706 20.4511 9.677 20.2557 9.84131 20.0914C10.0056 19.9271 10.201 19.7972 10.4161 19.7092C10.6312 19.6212 10.8616 19.5769 11.094 19.5789C11.3263 19.5809 11.556 19.6292 11.7695 19.7209C11.983 19.8127 12.1761 19.946 12.3375 20.1131L21 28.7756L29.6625 20.1131C29.9926 19.7943 30.4346 19.6179 30.8935 19.6219C31.3523 19.6259 31.7912 19.81 32.1157 20.1344C32.4401 20.4589 32.6242 20.8978 32.6282 21.3567C32.6322 21.8155 32.4558 22.2576 32.137 22.5876L22.2373 32.4874Z" fill="url(#paint0_linear_4329_476)"/>
<path fill-rule="evenodd" clip-rule="evenodd" d="M22.2373 21.4874C21.9091 21.8154 21.464 21.9997 21 21.9997C20.536 21.9997 20.0909 21.8154 19.7628 21.4874L9.86301 11.5876C9.69586 11.4262 9.56254 11.2331 9.47083 11.0196C9.37911 10.8061 9.33084 10.5764 9.32882 10.3441C9.3268 10.1117 9.37108 9.88126 9.45907 9.66619C9.54706 9.45112 9.677 9.25573 9.84131 9.09142C10.0056 8.92711 10.201 8.79716 10.4161 8.70917C10.6312 8.62118 10.8616 8.5769 11.094 8.57892C11.3263 8.58094 11.556 8.62922 11.7695 8.72094C11.983 8.81265 12.1761 8.94597 12.3375 9.11311L21 17.7756L29.6625 9.11311C29.9926 8.79434 30.4346 8.61795 30.8935 8.62193C31.3523 8.62592 31.7912 8.80997 32.1157 9.13443C32.4401 9.45889 32.6242 9.89781 32.6282 10.3567C32.6322 10.8155 32.4558 11.2576 32.137 11.5876L22.2373 21.4874Z" fill="url(#paint1_linear_4329_476)"/>
<defs>
<linearGradient id="paint0_linear_4329_476" x1="20.9785" y1="4.03544" x2="20.9784" y2="36.3067" gradientUnits="userSpaceOnUse">
<stop stop-color="#876D24"/>
<stop offset="0.28" stop-color="#F3D57B"/>
<stop offset="0.66" stop-color="#B69637"/>
<stop offset="1" stop-color="#DCBF69"/>
</linearGradient>
<linearGradient id="paint1_linear_4329_476" x1="20.9785" y1="4.03544" x2="20.9784" y2="36.3067" gradientUnits="userSpaceOnUse">
<stop stop-color="#876D24"/>
<stop offset="0.28" stop-color="#F3D57B"/>
<stop offset="0.66" stop-color="#B69637"/>
<stop offset="1" stop-color="#DCBF69"/>
</linearGradient>
</defs>
</svg>
