<svg width="20" height="30" viewBox="0 0 20 30" fill="none" xmlns="http://www.w3.org/2000/svg">
<path d="M11.3333 0.666748C13.4032 0.666672 15.3925 1.46884 16.8833 2.9047C18.3741 4.34057 19.2504 6.29836 19.328 8.36675L19.3333 8.66675V19.3334C19.3334 21.4033 18.5312 23.3926 17.0954 24.8834C15.6595 26.3742 13.7017 27.2505 11.6333 27.3281L11.3333 27.3334H8.66666C6.59682 27.3335 4.60752 26.5313 3.1167 25.0955C1.62589 23.6596 0.749617 21.7018 0.671998 19.6334L0.666664 19.3334V8.66675C0.666588 6.59691 1.46875 4.6076 2.90462 3.11679C4.34048 1.62597 6.29828 0.7497 8.36666 0.672081L8.66666 0.666748H11.3333ZM11.3333 3.33341H8.66666C7.29834 3.33341 5.98236 3.85933 4.99091 4.80238C3.99947 5.74543 3.40841 7.03347 3.34 8.40008L3.33333 8.66675V19.3334C3.33333 20.7017 3.85924 22.0177 4.8023 23.0092C5.74535 24.0006 7.03339 24.5917 8.4 24.6601L8.66666 24.6667H11.3333C12.7017 24.6667 14.0176 24.1408 15.0091 23.1978C16.0005 22.2547 16.5916 20.9667 16.66 19.6001L16.6667 19.3334V8.66675C16.6667 7.29842 16.1408 5.98244 15.1977 4.991C14.2546 3.99955 12.9666 3.4085 11.6 3.34008L11.3333 3.33341ZM10 6.00008C10.3266 6.00012 10.6418 6.12002 10.8858 6.33704C11.1299 6.55405 11.2858 6.85308 11.324 7.17741L11.3333 7.33342V12.6667C11.333 13.0066 11.2028 13.3335 10.9695 13.5806C10.7362 13.8277 10.4174 13.9764 10.0781 13.9963C9.73888 14.0162 9.40483 13.9058 9.14422 13.6877C8.88362 13.4696 8.71614 13.1602 8.676 12.8227L8.66666 12.6667V7.33342C8.66666 6.97979 8.80714 6.64065 9.05719 6.39061C9.30724 6.14056 9.64638 6.00008 10 6.00008Z" fill="url(#paint0_linear_4329_468)"/>
<defs>
<linearGradient id="paint0_linear_4329_468" x1="10" y1="-4.29449" x2="9.99989" y2="30.9445" gradientUnits="userSpaceOnUse">
<stop stopColor="#876D24"/>
<stop offset="0.28" stopColor="#F3D57B"/>
<stop offset="0.66" stopColor="#B69637"/>
<stop offset="1" stopColor="#DCBF69"/>
</linearGradient>
</defs>
</svg>
