<svg width="598" height="800" viewBox="0 0 598 800" fill="none" xmlns="http://www.w3.org/2000/svg">
<path d="M299 -3.05176e-05C134.502 -3.05176e-05 0.675415 133.88 0.675415 298.443C0.675415 543.631 269.306 783.036 280.745 793.11C285.96 797.702 292.479 800.003 299 800.003C305.521 800.003 312.04 797.705 317.257 793.11C328.692 783.038 597.325 543.634 597.325 298.443C597.325 133.88 463.498 -3.05176e-05 299 -3.05176e-05ZM299 734.516C239.609 676.964 55.9212 483.933 55.9212 298.443C55.9212 164.345 164.966 55.2458 299 55.2458C433.034 55.2458 542.079 164.345 542.079 298.443C542.079 483.93 358.391 676.962 299 734.516Z" fill="url(#paint0_linear_4_3)"/>
<path d="M299 159.415C222.844 159.415 160.888 221.783 160.888 298.443C160.888 375.106 222.844 437.471 299 437.471C375.156 437.471 437.112 375.106 437.112 298.443C437.112 221.783 375.156 159.415 299 159.415ZM299 382.225C253.306 382.225 216.131 344.641 216.131 298.443C216.131 252.248 253.306 214.661 299 214.661C344.694 214.661 381.869 252.245 381.869 298.443C381.869 344.641 344.694 382.225 299 382.225Z" fill="url(#paint1_linear_4_3)"/>
<defs>
<linearGradient id="paint0_linear_4_3" x1="299" y1="-148.838" x2="298.997" y2="908.336" gradientUnits="userSpaceOnUse">
<stop stopColor="#876D24"/>
<stop offset="0.28" stopColor="#F3D57B"/>
<stop offset="0.66" stopColor="#B69637"/>
<stop offset="1" stopColor="#DCBF69"/>
</linearGradient>
<linearGradient id="paint1_linear_4_3" x1="299" y1="107.684" x2="298.999" y2="475.124" gradientUnits="userSpaceOnUse">
<stop stopColor="#876D24"/>
<stop offset="0.28" stopColor="#F3D57B"/>
<stop offset="0.66" stopColor="#B69637"/>
<stop offset="1" stopColor="#DCBF69"/>
</linearGradient>
</defs>
</svg>
