<svg width="160" height="164" viewBox="0 0 160 164" fill="none" xmlns="http://www.w3.org/2000/svg">
<g filter="url(#filter0_d_3753_6335)">
<path d="M74.1883 103.021L74.9324 102.444C76.7242 101.055 77.8591 98.1036 78.5076 93.1609L78.5783 92.6247L78.2333 93.0403C76.267 95.4099 73.3778 96.7692 70.3015 96.7692C64.6228 96.7692 60 92.1466 60 86.468C60 80.7895 64.6228 76.1668 70.3015 76.1668C70.6174 76.1668 70.9374 76.1834 71.2534 76.2083L71.5776 76.2375L71.3989 75.9673C70.2889 74.2795 69.6986 72.3216 69.6986 70.3012C69.6986 64.6227 74.3214 60 80 60C85.6787 60 90.3014 64.6227 90.3014 70.3012C90.3014 72.3216 89.7153 74.2795 88.6012 75.9673L88.4224 76.2375L88.7466 76.2083C89.0626 76.1794 89.3828 76.1668 89.6986 76.1668C95.3774 76.1668 100 80.7895 100 86.468C100 92.1466 95.3774 96.7692 89.6986 96.7692C86.6224 96.7692 83.7332 95.4099 81.7669 93.0403L81.4218 92.6247L81.4924 93.1609C82.1368 98.1036 83.2716 101.055 85.0676 102.444L85.8117 103.021H74.1925H74.1883Z" fill="#4C2C66"/>
</g>
<defs>
<filter id="filter0_d_3753_6335" x="0" y="0" width="160" height="163.021" filterUnits="userSpaceOnUse" colorInterpolationFilters="sRGB">
<feFlood flood-opacity="0" result="BackgroundImageFix"/>
<feColorMatrix in="SourceAlpha" type="matrix" values="0 0 0 0 0 0 0 0 0 0 0 0 0 0 0 0 0 0 127 0" result="hardAlpha"/>
<feOffset/>
<feGaussianBlur stdDeviation="30"/>
<feComposite in2="hardAlpha" operator="out"/>
<feColorMatrix type="matrix" values="0 0 0 0 0.385007 0 0 0 0 0.269461 0 0 0 0 0.478333 0 0 0 1 0"/>
<feBlend mode="normal" in2="BackgroundImageFix" result="effect1_dropShadow_3753_6335"/>
<feBlend mode="normal" in="SourceGraphic" in2="effect1_dropShadow_3753_6335" result="shape"/>
</filter>
</defs>
</svg>
