<svg width="160" height="160" viewBox="0 0 160 160" fill="none" xmlns="http://www.w3.org/2000/svg">
<g filter="url(#filter0_d_3753_5784)">
<path d="M99.9449 69.095C99.7934 67.5372 99.3017 66.0901 98.4609 64.7543C97.3721 63.0188 95.8789 61.7094 93.9676 60.8662C93.0808 60.4756 92.1526 60.2136 91.1832 60.116C87.641 59.7655 84.7372 60.955 82.4447 63.5558C81.2684 64.8919 80.5517 66.4497 80.2071 68.1629C80.1014 68.6822 80.06 69.2104 79.9958 69.7209C79.9912 69.6675 79.9727 69.5921 79.9683 69.5122C79.9085 68.2518 79.6144 67.0445 79.0815 65.8948C77.9329 63.4227 76.0859 61.634 73.4715 60.6264C72.1529 60.1205 70.7747 59.9297 69.3548 60.0228C67.3655 60.1516 65.592 60.8174 64.0299 62.0025C62.477 63.1741 61.3697 64.6699 60.6806 66.4541C60.1476 67.8435 59.9409 69.2771 60.0144 70.7595C60.143 73.2672 60.9287 75.5886 62.114 77.7988C62.9273 79.3212 63.9059 80.7371 64.9672 82.1086C66.1893 83.6887 67.5125 85.1845 68.8817 86.6448C70.6827 88.5621 72.5067 90.4617 74.2985 92.388C75.8699 94.0791 77.3678 95.8278 78.6221 97.7585C79.063 98.4377 79.4398 99.161 79.8442 99.8669C79.8671 99.9067 79.89 99.9468 79.9176 100C79.9405 99.9689 79.959 99.9423 79.9727 99.9157C80.8273 98.1979 81.953 96.6491 83.1705 95.1622C84.4018 93.6574 85.7342 92.2372 87.0757 90.8257C88.8631 88.9527 90.6642 87.0885 92.4192 85.1888C94.1651 83.2936 95.7823 81.2964 97.1332 79.1082C98.1348 77.4927 98.9479 75.7971 99.4579 73.9684C99.7015 73.0896 99.8715 72.1976 99.9405 71.2877C99.9541 71.079 99.9817 70.8749 100 70.6662V69.6675C99.9771 69.4811 99.9541 69.2992 99.9358 69.1129L99.9449 69.095Z" fill="#4C2C66"/>
</g>
<defs>
<filter id="filter0_d_3753_5784" x="0" y="0" width="160" height="160" filterUnits="userSpaceOnUse" colorInterpolationFilters="sRGB">
<feFlood flood-opacity="0" result="BackgroundImageFix"/>
<feColorMatrix in="SourceAlpha" type="matrix" values="0 0 0 0 0 0 0 0 0 0 0 0 0 0 0 0 0 0 127 0" result="hardAlpha"/>
<feOffset/>
<feGaussianBlur stdDeviation="30"/>
<feComposite in2="hardAlpha" operator="out"/>
<feColorMatrix type="matrix" values="0 0 0 0 0.385007 0 0 0 0 0.269461 0 0 0 0 0.478333 0 0 0 1 0"/>
<feBlend mode="normal" in2="BackgroundImageFix" result="effect1_dropShadow_3753_5784"/>
<feBlend mode="normal" in="SourceGraphic" in2="effect1_dropShadow_3753_5784" result="shape"/>
</filter>
</defs>
</svg>
